<svg width="24" height="27" viewBox="0 0 24 27" fill="none" xmlns="http://www.w3.org/2000/svg">
<path d="M19.8776 14.4087C19.8653 12.2784 20.8874 10.6706 22.9563 9.48642C21.7987 7.92497 20.05 7.06589 17.7409 6.89755C15.555 6.73502 13.1659 8.09911 12.2916 8.09911C11.3679 8.09911 9.24977 6.9556 7.58726 6.9556C4.15138 7.00784 0.5 9.53866 0.5 14.6874C0.5 16.2082 0.795559 17.7812 1.38668 19.4007C2.17483 21.531 5.01959 26.7552 7.98749 26.6681C9.53918 26.6333 10.6352 25.6291 12.6549 25.6291C14.6129 25.6291 15.6289 26.6681 17.3592 26.6681C20.3517 26.6275 22.9255 21.8793 23.6767 19.7432C19.6621 17.9612 19.8776 14.519 19.8776 14.4087ZM16.3924 4.87754C18.0734 2.99684 17.9195 1.28448 17.8702 0.669189C16.3863 0.750454 14.6684 1.62115 13.6893 2.695C12.6118 3.84432 11.9775 5.26645 12.113 6.86853C13.7201 6.98462 15.1856 6.2068 16.3924 4.87754Z" fill="black"/>
</svg>
