<svg width="28" height="25" viewBox="0 0 28 25" fill="none" xmlns="http://www.w3.org/2000/svg">
  <path fill-rule="evenodd" clip-rule="evenodd" d="M26.3791 24.6692C27.2139 24.6692 27.8907 24.0761 27.8907 23.3446V1.99376C27.8907 1.26205 27.2138 0.669189 26.3791 0.669189H2.01171C1.17663 0.669189 0.5 1.26214 0.5 1.99376V23.3445C0.5 24.0761 1.17663 24.6691 2.01171 24.6691H26.3791V24.6692ZM19.3992 24.6692V15.3751H22.9595L23.4926 11.753H19.399V9.44046C19.399 8.39178 19.7314 7.67716 21.4477 7.67716L23.6367 7.67626V4.43669C23.2581 4.39263 21.9586 4.29399 20.447 4.29399C17.2909 4.29399 15.1301 5.98193 15.1301 9.08185V11.753H11.5606V15.3751H15.1301V24.6691H19.3992V24.6692Z" fill="#0F2E68"/>
</svg>