<svg width="28" height="28" viewBox="0 0 28 28" fill="none" xmlns="http://www.w3.org/2000/svg">
<g clip-path="url(#clip0_245_796)">
<path d="M26.8691 14.4219C26.8691 13.3157 26.7793 12.5085 26.5851 11.6714H13.9536V16.6641H21.368C21.2186 17.9049 20.4114 19.7734 18.6175 21.0291L18.5924 21.1962L22.5862 24.2902L22.8629 24.3178C25.4041 21.9709 26.8691 18.5177 26.8691 14.4219Z" fill="#4285F4"/>
<path d="M13.9537 27.5765C17.5861 27.5765 20.6355 26.3805 22.8629 24.3177L18.6176 21.029C17.4815 21.8213 15.9567 22.3743 13.9537 22.3743C10.396 22.3743 7.37638 20.0275 6.29999 16.7837L6.14221 16.7971L1.98937 20.011L1.93506 20.162C4.14741 24.5568 8.69176 27.5765 13.9537 27.5765Z" fill="#34A853"/>
<path d="M6.29995 16.7836C6.01593 15.9465 5.85156 15.0495 5.85156 14.1227C5.85156 13.1959 6.01593 12.299 6.28501 11.4619L6.27748 11.2836L2.0726 8.01807L1.93502 8.08351C1.0232 9.90724 0.5 11.9552 0.5 14.1227C0.5 16.2903 1.0232 18.3381 1.93502 20.1619L6.29995 16.7836Z" fill="#FBBC05"/>
<path d="M13.9537 5.87122C16.4799 5.87122 18.184 6.96246 19.1557 7.87438L22.9526 4.16713C20.6207 1.99961 17.5861 0.669189 13.9537 0.669189C8.69176 0.669189 4.14741 3.68876 1.93506 8.08358L6.28505 11.462C7.37638 8.21816 10.396 5.87122 13.9537 5.87122Z" fill="#EB4335"/>
</g>
<defs>
<clipPath id="clip0_245_796">
<rect width="27" height="27" fill="white" transform="translate(0.5 0.669189)"/>
</clipPath>
</defs>
</svg>
